<svg xmlns="http://www.w3.org/2000/svg" width="76.264" height="72.26" viewBox="0 0 76.264 72.26"><path d="M74.624,11.654H47.481V21.778a9.479,9.479,0,0,1,5.895-1.868v9.844h9.768a9.857,9.857,0,0,1-9.816,9.879,10.2,10.2,0,0,1-5.812-1.954v6.765H68.867v3.321H47.509v4.109H68.847v3.279H47.5v7.436H74.644c1.1,0,1.621-.578,1.621-1.706V13.274a1.422,1.422,0,0,0-1.621-1.621ZM54.91,28.133V18.206a9.852,9.852,0,0,1,9.832,9.927ZM26.235,28.3a3.054,3.054,0,0,0-.836-1.5,3.49,3.49,0,0,0-1.535-.782,8.373,8.373,0,0,0-2.193-.286l-2.288.044v9.53h.083a22.533,22.533,0,0,0,2.622,0,6.1,6.1,0,0,0,2.571-.715,4.232,4.232,0,0,0,1.783-2.9,8.026,8.026,0,0,0-.2-3.53V28.3ZM0,8.664V65.69l43.5,7.515V.945Zm32.454,25.7A8.763,8.763,0,0,1,27.1,39.652a20.994,20.994,0,0,1-7.719.887V51.413l-5.723-.664V20.872l9.085-.473a14.051,14.051,0,0,1,4.976.572,6.812,6.812,0,0,1,3.886,2.93A10.466,10.466,0,0,1,33.229,29,12.5,12.5,0,0,1,32.454,34.361Z" transform="translate(0 -0.945)"/></svg>