<svg xmlns="http://www.w3.org/2000/svg" width="81.463" height="64.007" viewBox="0 0 81.463 64.007"><g transform="translate(24.75 -2.25)"><path d="M7.253,2.813H-7.294v38.64c0,9.561-3.279,12.231-8.985,12.231a21.736,21.736,0,0,1-6.955-1.1L-24.75,63.892a34.49,34.49,0,0,0,9.984,1.472c13.1,0,22.019-6.159,22.019-23.817V2.813Z" transform="translate(0 0.892)"/><path d="M14,2.25c-14.082,0-23,8-23,18.575,0,9.107,6.865,14.809,16.846,18.486,7.219,2.574,10.072,4.875,10.072,8.644,0,4.138-3.3,6.805-9.537,6.805A31.539,31.539,0,0,1-6.238,50.9v0L-9,62.389c3.389,1.934,9.718,3.865,16.578,3.865,16.49,0,24.154-8.829,24.154-19.22,0-8.828-4.9-14.529-15.507-18.577C8.381,25.331,5.084,23.584,5.084,19.63c0-3.128,2.853-5.977,8.736-5.977A25.157,25.157,0,0,1,25.913,16.8L29.39,5.16A37.458,37.458,0,0,0,14,2.25Z" transform="translate(24.982 0)"/></g></svg>