<svg xmlns="http://www.w3.org/2000/svg" width="76.668" height="74.752" viewBox="0 0 76.668 74.752"><path d="M0,.45V75.2H76.668V.45ZM3.195,3.645H73.474V72.007H3.195ZM9.983,18.052c0-.268.054-.374.371-.425,1.214-.054,4.7-.16,8.3-.16,10.7,0,16.024,6.907,16.024,17.027,0,14.072-9.232,18.337-16.34,18.337-2.69,0-6.593-.051-8.018-.1-.208,0-.313-.16-.313-.422V18.045Zm5.75,29.613c.894.058,1.687.109,2.69.109,5.9,0,10.277-4.166,10.331-13.123.064-8.753-4.472-12.123-10.1-12.123-1.108,0-2,.064-2.9.121V47.684ZM56.265,52.68c-.371,0-.473-.144-.527-.457-1.581-8.8-2.9-15.024-3.482-19.346H52.2c-.684,3.916-1.949,10.4-4.057,19.416-.105.319-.211.406-.473.406H42.509c-.371,0-.473-.051-.575-.367L36.29,27.156c-.051-.214.057-.425.374-.425h5.166a.375.375,0,0,1,.422.288c2,11.328,2.843,17.2,3.163,19.519h.211c.371-2.741,1.476-8.453,3.846-19.416.105-.319.105-.4.422-.4h5.431c.262,0,.313.128.367.393,1.846,10.382,3.057,16.931,3.373,19.57h.16c.511-3.373,1.214-7.922,3.463-19.627.054-.211.105-.339.371-.339h4.856c.211,0,.371.105.265.371L61.907,52.31c-.048.265-.1.371-.466.371H56.275Z" transform="translate(0 -0.45)"/></svg>