<svg xmlns="http://www.w3.org/2000/svg" width="67" height="65" viewBox="0 0 67 65"><g transform="translate(-9 -2413)"><path d="M0,2.25,2.411,29.59,13.263,33.2,24.115,29.59,26.525,2.25ZM21.628,7.776,21.3,11.043l-7.965,3.405-.021.007h7.7l-.884,10.127-6.783,1.982L6.521,24.548l-.442-5.1H9.457l.221,2.646,3.633.919,3.778-1.064.256-4.255L5.858,17.654v-.007l-.014.007-.249-3.2,7.743-3.226.449-.187H5.3L4.9,7.776Z" transform="translate(46.186 2443.25)" stroke="#000" stroke-width="1"/><path d="M0,2.25l2.557,29,11.474,3.825,11.548-3.825,2.557-29Zm22.583,9.372H9.115l.3,3.62H22.282l-1,10.874-7.173,1.978v.022h-.081l-7.232-2-.44-5.554h3.5l.256,2.792,3.92,1.062,3.935-1.062.44-4.558H6.177L5.239,8.126H22.9Z" transform="translate(12.432 2413.003)" stroke="#000" stroke-width="1"/><rect width="67" height="65" transform="translate(9 2413)" fill="none"/><line x1="31" y2="32" transform="translate(26.5 2429.5)" fill="none" stroke="#707070" stroke-width="1"/></g></svg>