<svg xmlns="http://www.w3.org/2000/svg" width="82.037" height="79.986" viewBox="0 0 82.037 79.986"><path d="M67.509.45H14.527A14.515,14.515,0,0,0,0,14.977V65.908A14.515,14.515,0,0,0,14.527,80.436H67.509A14.515,14.515,0,0,0,82.037,65.908V14.977A14.515,14.515,0,0,0,67.509.45ZM78.584,64.575A12.384,12.384,0,0,1,66.211,77.018H15.826A12.429,12.429,0,0,1,3.418,64.61V16.276A12.429,12.429,0,0,1,15.826,3.868h50.35A12.408,12.408,0,0,1,78.584,16.276Zm-46.146-26.7,9.571,18.39c.171.273.068.547-.205.547H35.857a.671.671,0,0,1-.718-.444c-2.188-4.512-4.409-9.024-6.7-13.878h-.068c-2.051,4.58-4.307,9.4-6.495,13.912a.656.656,0,0,1-.615.376h-5.64c-.342,0-.376-.273-.205-.479L24.782,38.46,15.724,20.412a.276.276,0,0,1,.205-.479h5.879a.538.538,0,0,1,.615.376c2.153,4.512,4.341,9.161,6.392,13.707h.068c1.983-4.512,4.17-9.195,6.289-13.673.171-.273.273-.444.615-.444h5.5c.273,0,.376.205.205.479Zm11.246,5.572c0-7.964,5.3-14.186,13.707-14.186a15.158,15.158,0,0,1,1.777.068V20.276a.343.343,0,0,1,.342-.342h5.4c.273,0,.342.1.342.273V51.586a24.346,24.346,0,0,0,.171,3.35c0,.205-.068.273-.273.376A20.361,20.361,0,0,1,56.4,57.295C48.983,57.329,43.685,52.748,43.685,43.451ZM59.169,34.7a5.169,5.169,0,0,0-1.983-.342c-4.307,0-7.315,3.316-7.315,8.819,0,6.289,3.076,8.819,6.939,8.819a6.449,6.449,0,0,0,2.359-.376V34.7Z" transform="translate(0 -0.45)"/></svg>