<svg xmlns="http://www.w3.org/2000/svg" width="66.564" height="64.9" viewBox="0 0 66.564 64.9"><path d="M0,.45v64.9H66.564V.45ZM2.774,3.224H63.791V62.576H2.774ZM16.086,15.649c0-.186.388-.322.621-.322,1.786-.092,4.4-.139,7.15-.139,7.688,0,10.678,4.216,10.678,9.613,0,7.045-5.109,10.068-11.377,10.068-1.054,0-1.414-.047-2.149-.047V45.478c0,.23-.092.322-.319.322H16.408c-.23,0-.319-.083-.319-.313V15.649Zm4.923,14.733c.638.044,1.143.044,2.247.044,3.245,0,6.3-1.143,6.3-5.536,0-3.522-2.18-5.308-5.885-5.308-1.1,0-2.149.044-2.654.092V30.39Zm23.872-3.295c-2.2,0-2.929,1.1-2.929,2.014,0,1.007.5,1.692,3.431,3.2C49.732,34.412,51.1,36.422,51.1,39.4c0,4.438-3.384,6.823-7.96,6.823a12.117,12.117,0,0,1-5.686-1.193c-.18-.092-.222-.227-.222-.458V40.5c0-.277.133-.369.316-.233a10.217,10.217,0,0,0,5.58,1.647c2.2,0,3.112-.915,3.112-2.152,0-1.007-.638-1.878-3.431-3.342-3.938-1.886-5.586-3.8-5.586-7.009,0-3.569,2.79-6.545,7.641-6.545a12.927,12.927,0,0,1,4.976.777.6.6,0,0,1,.277.549v3.8c0,.23-.139.369-.416.277a9.932,9.932,0,0,0-4.834-1.193Z" transform="translate(0 -0.45)"/></svg>