<svg xmlns="http://www.w3.org/2000/svg" width="73.603" height="72.26" viewBox="0 0 73.603 72.26"><path d="M72.232,9.17H47.575v4.563h7.268v7.219H47.575v2.3h7.268v7.228H47.575v2.365h7.268v6.836H47.575V42.42h7.268v6.851H47.575V52.01h7.268V58.9H47.575v5.026H72.232c.389-.117.715-.577.975-1.374a6.725,6.725,0,0,0,.4-1.95V10c0-.393-.135-.629-.4-.711A3.374,3.374,0,0,0,72.232,9.17ZM69.034,58.9H57.205V52.01H69.034V58.9Zm0-9.624H57.205V42.417H69.034Zm0-9.593H57.205V32.873H69.034v6.805Zm0-9.2H57.205V23.259H69.034v7.219Zm0-9.565H57.205V13.737H69.034v7.176ZM0,8.032V65.078l43.426,7.511V.329L0,8.057ZM25.74,51.185q-.248-.672-2.325-5.713c-1.377-3.361-2.208-5.318-2.45-5.876h-.077L16.23,50.682,10,50.262l7.385-13.8-6.762-13.8,6.348-.334,4.2,10.8h.083l4.738-11.289,6.56-.414L24.74,36.357l8.05,15.236-7.051-.414Z" transform="translate(0 -0.329)"/></svg>