<svg xmlns="http://www.w3.org/2000/svg" width="66.564" height="64.9" viewBox="0 0 66.564 64.9"><path d="M0,.45v64.9H66.564V.45ZM2.774,3.224H63.791V62.576H2.774ZM23.089,37.2l-2.2,8.315c-.047.23-.139.283-.41.283H16.411c-.277,0-.319-.092-.277-.41L24.01,17.8a8.556,8.556,0,0,0,.272-2.31c0-.183.092-.277.23-.277h5.813c.183,0,.277.05.322.277l8.834,29.937c.047.23,0,.366-.23.366H34.674c-.23,0-.366-.055-.41-.239L31.976,37.2H23.081Zm7.733-4.507c-.777-3.067-2.607-9.785-3.295-13.035H27.48c-.594,3.245-2.058,8.737-3.2,13.035ZM43.3,17.277a2.837,2.837,0,0,1,5.675,0,2.657,2.657,0,0,1-2.884,2.837,2.607,2.607,0,0,1-2.8-2.837Zm.311,6.307c0-.222.092-.305.322-.305h4.354c.244,0,.333.092.333.322V45.5c0,.23-.044.322-.319.322H44c-.277,0-.369-.139-.369-.361V23.581Z" transform="translate(0 -0.45)"/></svg>