<svg xmlns="http://www.w3.org/2000/svg" width="74.99" height="71.012" viewBox="0 0 74.99 71.012"><path d="M74.99,10.63v51.7a1.4,1.4,0,0,1-.466,1.081,1.587,1.587,0,0,1-1.125.431H46.655V56.675H68.472V53.41H46.636v-4H68.453V46.151h-21.8V42.12h21.81V38.9H46.652v-4.04h21.81V31.593H46.652v-4h21.81V24.338H46.652V20.26h21.81V17.154H46.652v-8.1H73.406a1.409,1.409,0,0,1,1.119.466,1.45,1.45,0,0,1,.466,1.112ZM42.652.968v71L0,64.587V8.549L42.652.956ZM36.215,21.929l-5.34.328-3.425,21.2h-.078c-.169-1-.8-4.515-1.922-10.521l-2-10.2-5.012.25-2.006,9.946c-1.172,5.793-1.825,9.165-2,10.112h-.047L11.346,23.519l-4.593.244,4.921,24.632,5.106.328L18.7,39.136c1.125-5.624,1.781-8.893,1.922-9.787h.141c.191.953.8,4.293,1.922,10.03l1.922,9.868,5.531.328,6.187-27.654h-.109Z" transform="translate(0 -0.956)"/></svg>